<svg width="100" height="100" viewBox="0 0 100 100" fill="none" xmlns="http://www.w3.org/2000/svg">

    <g id="codeReactSVG">
        <path d="M100 48.7043C100 42.0793 91.7042 35.8001 78.9833 31.9084C81.9208 18.9459 80.6167 8.62925 74.8667 5.32508C73.4734 4.54475 71.8965 4.15197 70.3 4.18758V8.72925C71.2375 8.72925 71.9917 8.91675 72.625 9.26258C75.3958 10.8542 76.6 16.9043 75.6625 24.6917C75.4375 26.6084 75.0708 28.6251 74.6208 30.6834C70.361 29.6569 66.0375 28.915 61.6792 28.4626C59.0827 24.8805 56.25 21.4757 53.2 18.2709C59.8458 12.0959 66.0833 8.71258 70.325 8.71258V4.16675C64.7167 4.16675 57.3792 8.16258 49.9583 15.0917C42.5417 8.20842 35.2 4.25008 29.5958 4.25008V8.79175C33.8167 8.79175 40.075 12.1584 46.7208 18.2917C43.8667 21.2917 41.0125 24.6917 38.3 28.4626C33.9326 28.91 29.6015 29.659 25.3375 30.7043C24.8667 28.6667 24.5208 26.6918 24.275 24.7959C23.3167 17.0042 24.5 10.9542 27.2542 9.34592C27.8625 8.97925 28.6583 8.81258 29.5958 8.81258V4.27091C27.8875 4.27091 26.3333 4.63758 24.9917 5.40841C19.2625 8.71258 17.9792 19.0042 20.9333 31.9293C8.25417 35.8459 0 42.1001 0 48.7043C0 55.3293 8.29583 61.6084 21.0167 65.4959C18.0792 78.4626 19.3833 88.7793 25.1333 92.0793C26.4583 92.8543 28.0083 93.2209 29.7167 93.2209C35.325 93.2209 42.6625 89.2251 50.0833 82.2959C57.5 89.1834 64.8375 93.1376 70.4458 93.1376C72.0546 93.1716 73.6435 92.7776 75.05 91.9959C80.7792 88.6959 82.0625 78.4043 79.1083 65.4793C91.7458 61.5876 100 55.3084 100 48.7043ZM73.4583 35.1084C72.6666 37.8328 71.7489 40.519 70.7083 43.1584C69.0048 39.8449 67.1344 36.6199 65.1042 33.4959C68 33.9251 70.7917 34.4542 73.4625 35.1084H73.4583ZM64.125 56.8167C62.5375 59.5667 60.9042 62.1793 59.2125 64.6043C53.0969 65.1433 46.946 65.1502 40.8292 64.6251C37.3206 59.6133 34.2522 54.3074 31.6583 48.7668C34.2483 43.213 37.3036 37.8885 40.7917 32.8501C46.9058 32.31 53.0553 32.3016 59.1708 32.8251C60.8625 35.2501 62.5167 37.8418 64.1042 40.5751C65.6542 43.2417 67.0625 45.9501 68.3458 48.6834C67.0483 51.4499 65.6402 54.1632 64.125 56.8167ZM70.7083 54.1668C71.8083 56.8959 72.75 59.6292 73.5208 62.2793C70.8542 62.9334 68.0375 63.4834 65.125 63.9084C67.1468 60.756 69.0103 57.5047 70.7083 54.1668ZM50.0417 75.9167C48.1458 73.9584 46.25 71.7793 44.375 69.3917C46.2083 69.4751 48.0833 69.5376 49.9792 69.5376C51.8958 69.5376 53.7917 69.4959 55.6458 69.3917C53.8125 71.7793 51.9167 73.9584 50.0417 75.9167ZM34.875 63.9084C32.0656 63.5014 29.2765 62.9647 26.5167 62.3001C27.2708 59.6709 28.2083 56.9584 29.2667 54.2501C30.1042 55.8751 30.9833 57.5084 31.9417 59.1418C32.9 60.7709 33.875 62.3626 34.875 63.9084ZM49.9375 21.4917C51.8333 23.4501 53.7292 25.6292 55.6042 28.0168C53.7708 27.9334 51.8958 27.8709 50 27.8709C48.0833 27.8709 46.1875 27.9126 44.3333 28.0168C46.1667 25.6292 48.0625 23.4501 49.9375 21.4917ZM34.8542 33.5001C32.8328 36.6456 30.9694 39.8899 29.2708 43.2209C28.2009 40.5645 27.2623 37.8571 26.4583 35.1084C29.125 34.4751 31.9417 33.9251 34.8542 33.5001ZM16.4083 59.0168C9.19167 55.9417 4.525 51.9043 4.525 48.7043C4.525 45.5043 9.19167 41.4459 16.4083 38.3918C18.1583 37.6376 20.075 36.9626 22.0542 36.3334C23.2167 40.3251 24.7458 44.4834 26.6375 48.7459C24.8515 52.755 23.3411 56.8813 22.1167 61.0959C20.181 60.4966 18.276 59.8027 16.4083 59.0168ZM27.375 88.1418C24.6042 86.5584 23.4 80.5001 24.3375 72.7168C24.5625 70.8001 24.9292 68.7793 25.3792 66.7209C29.3708 67.7001 33.7333 68.4543 38.3208 68.9459C40.9174 72.528 43.7501 75.9327 46.8 79.1376C40.1542 85.3126 33.9167 88.6959 29.675 88.6959C28.8748 88.7047 28.0847 88.5157 27.375 88.1459V88.1418ZM75.725 72.6126C76.6833 80.4001 75.5 86.4543 72.7458 88.0626C72.1375 88.4293 71.3417 88.5918 70.4042 88.5918C66.1833 88.5918 59.925 85.2293 53.2792 79.0918C56.1333 76.1001 58.9875 72.6959 61.7 68.9251C66.0674 68.4777 70.3985 67.7287 74.6625 66.6834C75.1333 68.7418 75.4958 70.7168 75.725 72.6126ZM83.5708 59.0168C81.8208 59.7709 79.9042 60.4459 77.925 61.0751C76.6791 56.8389 75.1478 52.6919 73.3417 48.6626C75.2167 44.4251 76.7208 40.2876 77.8625 36.3126C79.8833 36.9417 81.7958 37.6376 83.5917 38.3918C90.8083 41.4668 95.475 45.5043 95.475 48.7043C95.4542 51.9043 90.7875 55.9626 83.5708 59.0168Z"
              fill="white" fill-opacity="0.5"/>
        <path d="M49.9791 58.021C52.4501 58.021 54.8198 57.0394 56.567 55.2922C58.3142 53.545 59.2958 51.1753 59.2958 48.7044C59.2958 46.2334 58.3142 43.8637 56.567 42.1165C54.8198 40.3693 52.4501 39.3877 49.9791 39.3877C47.5082 39.3877 45.1385 40.3693 43.3913 42.1165C41.644 43.8637 40.6625 46.2334 40.6625 48.7044C40.6625 51.1753 41.644 53.545 43.3913 55.2922C45.1385 57.0394 47.5082 58.021 49.9791 58.021Z"
              fill="white" fill-opacity="0.5"/>
    </g>

    <g id="EmailMe">
        <path d="M18.125 3.125H1.875C1.5293 3.125 1.25 3.4043 1.25 3.75V16.25C1.25 16.5957 1.5293 16.875 1.875 16.875H18.125C18.4707 16.875 18.75 16.5957 18.75 16.25V3.75C18.75 3.4043 18.4707 3.125 18.125 3.125ZM16.5469 5.25195L10.3848 10.0469C10.2324 10.166 10.0195 10.166 9.86719 10.0469L3.70312 5.25195C3.67989 5.23402 3.66285 5.20927 3.65438 5.18116C3.64592 5.15306 3.64647 5.12301 3.65594 5.09523C3.66542 5.06745 3.68335 5.04333 3.70722 5.02625C3.73109 5.00918 3.75971 5 3.78906 5H16.4609C16.4903 5 16.5189 5.00918 16.5428 5.02625C16.5667 5.04333 16.5846 5.06745 16.5941 5.09523C16.6035 5.12301 16.6041 5.15306 16.5956 5.18116C16.5872 5.20927 16.5701 5.23402 16.5469 5.25195Z"
              fill="white"/>
    </g>

    <g id="downloadCV">
        <path d="M10 12.5L13.3333 9.16667M10 12.5V2.5V12.5ZM10 12.5L6.66667 9.16667L10 12.5Z" stroke="white"
              stroke-width="2" stroke-linecap="round" stroke-linejoin="round"/>
        <path d="M1.66667 14.1667L2.18417 16.2376C2.2743 16.5981 2.48236 16.9182 2.77528 17.147C3.0682 17.3757 3.42918 17.5 3.80084 17.5001H16.1992C16.5708 17.5 16.9318 17.3757 17.2247 17.147C17.5177 16.9182 17.7257 16.5981 17.8158 16.2376L18.3333 14.1667"
              stroke="white" stroke-width="2" stroke-linecap="round" stroke-linejoin="round"/>
    </g>

    <g id="reactSVG">
        <path d="M32.33,22.516c7.635,0.052 15.965,0.609 21.683,5.708c0.168,0.15 0.33,0.306 0.488,0.467c1.349,1.375 2.054,3.595 0.965,5.422c-2.234,3.751 -7.23,5.387 -12.067,6.394c-7.234,1.506 -14.798,1.518 -22.029,0.192c-4.161,-0.764 -8.416,-2.103 -11.373,-4.904c-1.151,-1.09 -2.135,-2.524 -1.981,-4.12c0.25,-2.582 2.727,-4.239 4.812,-5.361c5.791,-3.116 12.847,-3.813 19.502,-3.798Zm-0.554,1.173c-7.224,0.049 -15.043,0.51 -20.621,5.129c-0.195,0.161 -0.383,0.33 -0.564,0.507c-0.117,0.114 -0.23,0.233 -0.339,0.355c-0.979,1.1 -1.316,2.867 -0.392,4.188c0.93,1.329 2.342,2.288 3.796,3.07c5.438,2.924 11.864,3.443 18.129,3.465c6.343,0.023 12.884,-0.555 18.487,-3.452c2.232,-1.155 4.744,-2.851 4.655,-5.035c-0.082,-2.004 -2.036,-3.242 -3.499,-4.126c-0.396,-0.239 -0.803,-0.46 -1.216,-0.668c-5.562,-2.787 -12.08,-3.447 -18.436,-3.433Z"
              style="fill:#00d8ff;"/>

        <path d="M42.115,10.703c2.793,0.071 4.24,3.429 4.431,5.909c0.038,0.493 0.052,0.988 0.046,1.483c-0.006,0.536 -0.035,1.072 -0.082,1.606c-0.589,6.612 -3.608,12.909 -7.163,18.724c-3.477,5.688 -7.717,11.36 -13.485,13.996c-1.907,0.872 -4.175,1.41 -5.863,0.437c-2.314,-1.333 -2.567,-4.451 -2.524,-6.816c0.011,-0.581 0.049,-1.162 0.109,-1.741c0.889,-8.56 5.228,-16.669 10.658,-23.655c3.168,-4.076 6.937,-8.119 11.632,-9.583c0.739,-0.231 1.326,-0.371 2.241,-0.36Zm-0.134,1.172c-3.279,0.052 -6.223,2.482 -8.83,5.007c-6.854,6.637 -11.905,15.464 -13.937,24.721c-0.157,0.717 -0.289,1.439 -0.386,2.166c-0.075,0.563 -0.13,1.129 -0.159,1.697c-0.023,0.452 -0.031,0.905 -0.017,1.358c0.01,0.354 0.033,0.708 0.072,1.06c0.029,0.269 0.068,0.537 0.117,0.803c0.037,0.197 0.08,0.393 0.13,0.588c0.041,0.158 0.087,0.315 0.139,0.471c0.409,1.233 1.463,2.411 2.878,2.45c3.301,0.09 6.409,-2.317 9.096,-4.933c4.717,-4.591 8.232,-10.36 10.978,-16.424c2.216,-4.896 4.243,-10.218 3.111,-15.607c-0.043,-0.204 -0.093,-0.406 -0.15,-0.606c-0.047,-0.163 -0.1,-0.324 -0.158,-0.483c-0.44,-1.199 -1.475,-2.271 -2.884,-2.268Z"
              style="fill:#00d8ff;"/>

        <path d="M22.109,10.747c3.564,0.069 6.765,2.488 9.607,5.197c5.186,4.943 9.011,11.231 11.913,17.849c2.248,5.127 4.316,10.882 2.478,16.292c-0.579,1.705 -2.044,3.265 -3.997,3.305c-3.581,0.072 -6.9,-2.532 -9.78,-5.335c-7.225,-7.034 -12.589,-16.32 -14.427,-26.168c-0.132,-0.704 -0.237,-1.414 -0.309,-2.127c-0.059,-0.582 -0.096,-1.167 -0.106,-1.752c-0.008,-0.472 0.002,-0.944 0.035,-1.414c0.022,-0.314 0.054,-0.626 0.097,-0.937c0.041,-0.292 0.093,-0.583 0.158,-0.871c0.043,-0.191 0.091,-0.38 0.146,-0.568c0.539,-1.843 1.941,-3.485 4.185,-3.471Zm-0.135,1.173c-2.087,0.046 -3.042,2.507 -3.234,4.234c-0.039,0.354 -0.063,0.711 -0.074,1.068c-0.014,0.456 -0.008,0.913 0.015,1.369c0.328,6.599 3.278,12.979 6.838,18.821c3.352,5.5 7.4,10.978 12.968,13.794c1.608,0.813 3.562,1.452 4.951,0.684c1.742,-0.964 1.956,-3.261 2.049,-4.973c0.025,-0.466 0.028,-0.934 0.013,-1.401c-0.018,-0.586 -0.064,-1.171 -0.133,-1.753c-0.642,-5.437 -3.05,-10.582 -5.816,-15.444c-3.442,-6.048 -7.659,-12.076 -13.627,-15.225c-1.236,-0.652 -2.574,-1.185 -3.95,-1.174Z"
              style="fill:#00d8ff;"/>
    </g>

    <g id="Redux-Toolkit">
        <path d="M21.7868 21.556C22.8939 21.4433 23.7338 20.505 23.6956 19.3789C23.6575 18.253 22.703 17.3522 21.5577 17.3522H21.4814C20.2978 17.3897 19.3817 18.3656 19.4199 19.5291C19.4581 20.0921 19.6871 20.58 20.0307 20.9178C18.7327 23.4326 16.7475 25.2717 13.7698 26.8106C11.7464 27.8615 9.6468 28.2369 7.54715 27.9742C5.82918 27.749 4.49301 26.9984 3.65301 25.7596C2.43144 23.9205 2.31695 21.9312 3.34773 19.942C4.07312 18.5157 5.21828 17.4647 5.94367 16.9392C5.79098 16.4513 5.56187 15.6256 5.44738 15.0251C-0.0882044 18.9661 0.484491 24.2959 2.16426 26.8106C3.42402 28.6873 5.98187 29.8509 8.80691 29.8509C9.57039 29.8509 10.3339 29.7757 11.0975 29.5882C15.9841 28.6498 19.6872 25.7972 21.7868 21.556ZM28.5059 16.9018C25.6045 13.5613 21.3287 11.7222 16.4421 11.7222H15.8314C15.4878 11.0466 14.7624 10.5961 13.9607 10.5961H13.8843C12.7009 10.6337 11.7848 11.6095 11.8229 12.7731C11.8611 13.8991 12.8154 14.7999 13.9607 14.7999H14.037C14.8769 14.7624 15.6023 14.2369 15.9077 13.5237H16.5948C19.4963 13.5237 22.2449 14.3494 24.7265 15.9634C26.6352 17.202 28.0096 18.816 28.7731 20.7677C29.4221 22.3441 29.3839 23.883 28.6967 25.1967C27.6278 27.1859 25.8336 28.2744 23.4666 28.2744C21.9395 28.2744 20.4889 27.824 19.7253 27.4862C19.3054 27.8615 18.5418 28.462 18.0073 28.8375C19.649 29.5881 21.3287 30.001 22.9321 30.001C26.597 30.001 29.3076 28.0116 30.3384 26.0224C31.4454 23.8454 31.369 20.0921 28.5059 16.9018ZM9.1123 22.1939C9.15051 23.3199 10.1049 24.2206 11.2502 24.2206H11.3266C12.51 24.1832 13.4262 23.2073 13.388 22.0438C13.3499 20.9177 12.3954 20.017 11.2502 20.017H11.1739C11.0975 20.017 10.9829 20.017 10.9067 20.0544C9.3414 17.5022 8.69242 14.7248 8.92152 11.7221C9.0741 9.47006 9.83769 7.51828 11.1739 5.9043C12.2809 4.51555 14.4188 3.83996 15.8696 3.80252C19.9162 3.7274 21.634 8.68179 21.7486 10.6711C22.2449 10.7837 23.0848 11.0465 23.6575 11.2342C23.1993 5.15382 19.3817 2.00098 15.7169 2.00098C12.2809 2.00098 9.1123 4.44067 7.85242 8.04387C6.09637 12.8481 7.24164 17.4647 9.37949 21.1055C9.18871 21.3682 9.0741 21.7811 9.1123 22.194V22.1939Z"
              fill="#764ABC"/>
    </g>

    <g id="JS">
        <path d="M2.25476 0H117.745V120H2.25476V0Z" fill="#F7DF1E"/>
        <path d="M32.6199 100.28L41.4581 94.7229C43.1631 97.8641 44.7142 100.522 48.4346 100.522C52.0009 100.522 54.2493 99.0723 54.2493 93.4342V55.0913H65.1024V93.5936C65.1024 105.274 58.5132 110.59 48.8999 110.59C40.2177 110.59 35.178 105.918 32.6198 100.28"
              fill="black"/>
        <path d="M70.9998 99.0724L79.8368 93.756C82.1631 97.7035 85.1866 100.603 90.5354 100.603C95.0324 100.603 97.9 98.2669 97.9 95.0448C97.9 91.1783 94.9543 89.8088 89.9926 87.5541L87.2801 86.345C79.4496 82.8819 74.2553 78.5322 74.2553 69.3492C74.2553 60.8913 80.4571 54.4469 90.1481 54.4469C97.0478 54.4469 102.009 56.9442 105.575 63.469L97.1248 69.1073C95.2641 65.6438 93.2491 64.2747 90.1483 64.2747C86.9697 64.2747 84.9539 66.369 84.9539 69.1073C84.9539 72.4905 86.9697 73.8602 91.6207 75.9547L94.3338 77.1629C103.559 81.2713 108.754 85.4595 108.754 94.8836C108.754 105.034 101.079 110.591 90.7682 110.591C80.6901 110.591 74.1779 105.597 70.9999 99.0724"
              fill="black"/>
    </g>

    <g id="TS">
        <path d="M0 60V120H60H120V60V0H60H0V60Z" fill="#007ACC"/>
        <path d="M26.5374 60.3979L26.4993 65.3122H34.3088H42.1184L42.1184 87.5026V109.693H47.6422H53.166V87.5026L53.166 65.3122H60.9755H68.785V60.4931C68.785 57.8264 68.7279 55.5979 68.6517 55.5407C68.5946 55.4645 59.0898 55.4264 47.566 55.4455L26.5946 55.5026L26.5374 60.3979Z"
              fill="white"/>
        <path d="M96.8264 55.3636C99.874 56.1255 102.198 57.4779 104.331 59.6874C105.436 60.8684 107.074 63.0208 107.207 63.535C107.245 63.6874 102.026 67.1922 98.8644 69.1541C98.7502 69.2303 98.293 68.7351 97.7787 67.9731C96.2359 65.7255 94.6168 64.7541 92.1406 64.5827C88.5025 64.335 86.1597 66.2398 86.1787 69.4208C86.1787 70.3541 86.3121 70.9065 86.693 71.6684C87.493 73.3255 88.9787 74.316 93.6454 76.3351C102.236 80.0303 105.912 82.4684 108.198 85.935C110.75 89.8017 111.322 95.9731 109.588 100.564C107.683 105.554 102.96 108.945 96.3121 110.068C94.2549 110.43 89.3787 110.373 87.1692 109.973C82.3502 109.116 77.7787 106.735 74.9597 103.611C73.8549 102.392 71.7025 99.2112 71.8359 98.9827C71.893 98.9065 72.3883 98.6017 72.9406 98.2779C73.474 97.9731 75.493 96.8112 77.3978 95.7065L80.8454 93.7065L81.5692 94.7731C82.5787 96.316 84.7883 98.4303 86.1216 99.135C89.9502 101.154 95.2073 100.868 97.7978 98.5446C98.9025 97.535 99.3597 96.4874 99.3597 94.9446C99.3597 93.5541 99.1883 92.9446 98.4644 91.897C97.5311 90.5636 95.6263 89.4398 90.2168 87.097C84.0263 84.4303 81.3597 82.7731 78.9216 80.1446C77.5121 78.6208 76.1787 76.1827 75.6264 74.1446C75.1692 72.4493 75.0549 68.2017 75.4168 66.4874C76.693 60.5065 81.2073 56.335 87.7216 55.097C89.8359 54.697 94.7502 54.8493 96.8264 55.3636Z"
              fill="white"/>
    </g>

    <g id="HTML5">
        <path d="M22.1325 102.004L13.7063 7.5H106.294L97.8563 101.989L59.9438 112.5L22.1325 102.004Z" fill="#E44F26"/>
        <path d="M60 104.468L90.6375 95.9738L97.845 15.2288H60V104.468Z" fill="#F1662A"/>
        <path d="M60 50.2763H44.6625L43.605 38.4075H60V26.8163H30.9375L31.215 29.9288L34.0613 61.8675H60V50.2763ZM60 80.3775L59.9475 80.3925L47.04 76.9088L46.215 67.665H34.5787L36.2025 85.86L59.9475 92.4525L60 92.4375V80.3775Z"
              fill="#EBEBEB"/>
        <path d="M59.9587 50.2763V61.8675H74.2312L72.8887 76.9013L59.9587 80.3888V92.4488L83.7225 85.86L83.895 83.9025L86.6175 53.3888L86.9025 50.2763H59.9587ZM59.9587 26.8163V38.4075H87.9562L88.1887 35.805L88.7175 29.9288L88.995 26.8163H59.9587Z"
              fill="white"/>
    </g>

    <g id="CSS">
        <path d="M22.1325 101.154L13.71 7.4375H106.29L97.8562 101.139L59.9437 111.562L22.1325 101.154Z" fill="#1572B6"/>
        <path d="M60 103.597L90.6375 95.1739L97.845 15.1018H60V103.597Z" fill="#33A9DC"/>
        <path d="M60 49.054H75.3375L76.395 37.2842H60V25.7896H89.0625L88.785 28.8724L85.9387 60.5487H60V49.054Z"
              fill="white"/>
        <path d="M60.0713 78.9045L60.0188 78.9193L47.1113 75.4609L46.2863 66.2942H34.65L36.2738 84.3413L60.015 90.8788L60.0713 90.864V78.9045Z"
              fill="#EBEBEB"/>
        <path d="M74.3513 60.0615L72.9563 75.4534L60.03 78.9119V90.8714L83.79 84.3412L83.9663 82.4001L85.98 60.0615H74.3513Z"
              fill="white"/>
        <path d="M60.0413 25.7896V37.2842H32.0438L31.8113 34.6997L31.2825 28.8724L31.005 25.7896H60.0413ZM60 49.054V60.5487H47.2538L47.0213 57.9642L46.4963 52.1369L46.2188 49.054H60Z"
              fill="#EBEBEB"/>
    </g>

    <g id="styled-component">

        <path d="M68.7672 118.279C68.9472 117.872 69.4014 117.589 69.7314 117.246C74.7665 111.967 79.8444 106.735 84.811 101.391C86.3651 99.9558 87.5661 98.1804 88.3199 96.2036C89.0737 94.2269 89.36 92.1026 89.1562 89.9968C89.0003 89.0951 88.7957 88.2025 88.5434 87.3229C87.1893 88.6084 85.9294 89.7783 84.661 90.9567C82.6898 92.7908 80.7272 94.6334 78.7389 96.4461C77.5664 97.6415 76.0589 98.4531 74.4155 98.7737C72.772 99.0943 71.07 98.9087 69.5342 98.2416C67.9796 97.6705 66.6269 96.6553 65.6442 95.3221C64.6614 93.9889 64.0919 92.3965 64.0063 90.7425C63.9603 90.5297 63.8987 90.3206 63.8221 90.1168C62.3094 91.4024 60.861 92.5851 59.4254 93.8021L29.5875 119.085C29.3818 119.261 29.159 119.479 28.9662 119.65H68.7458L68.6858 119.612C68.4715 119.462 68.5829 118.673 68.7672 118.279Z"
              fill="#FFCEBF"/>
        <path d="M27.1436 118.279C27.4974 117.818 27.9245 117.418 28.4077 117.096L69.7 82.0642C72.5168 79.6731 75.3207 77.2691 78.1118 74.8522C78.4567 74.6118 78.727 74.2791 78.8918 73.8924C79.5594 70.9831 79.654 67.9717 79.1703 65.0263C78.7418 65.3262 78.5104 65.4548 78.3132 65.6648C74.9322 68.6901 71.5683 71.7412 68.1702 74.7494C67.0445 75.8824 65.5885 76.6292 64.0116 76.8825C62.4346 77.1359 60.818 76.8826 59.3941 76.1592C57.9414 75.4734 56.7256 74.3709 55.9014 72.992C55.0773 71.6131 54.682 70.0201 54.766 68.4159V67.0275C54.1447 67.4817 53.6905 67.7859 53.2662 68.1287C36.7396 81.3615 20.2159 94.5842 3.69496 107.797C2.94933 108.393 2.05801 109.721 1.08098 108.431C0.103957 107.141 1.59092 106.61 2.34083 106.01C19.953 91.8774 37.5738 77.7576 55.2031 63.6507C58.0742 61.3496 58.2628 60.3854 56.3944 56.7301L55.2803 57.7757C52.2249 60.6168 49.1353 63.4193 46.1271 66.3075C44.8931 67.4978 43.3476 68.3148 41.6691 68.6641C39.9906 69.0135 38.2476 68.8809 36.6412 68.2818C35.0348 67.6827 33.6306 66.6415 32.5908 65.2784C31.5509 63.9153 30.9178 62.2858 30.7646 60.5782C30.1947 61.0067 29.7019 61.3196 29.2348 61.6838L3.09503 81.9443C2.64419 82.3864 2.13005 82.7591 1.5695 83.0498C1.14643 83.1777 0.692134 83.155 0.283936 82.9856V119.671H27.0922C26.9925 119.451 26.9453 119.21 26.9542 118.969C26.9631 118.727 27.028 118.491 27.1436 118.279Z"
              fill="#FFCEBF"/>
        <path d="M99.5654 1.82096C98.8369 4.20782 98.1298 6.59897 97.4913 9.01154C96.9016 10.7164 96.9702 12.5802 97.6837 14.2371C98.3972 15.8941 99.7041 17.2246 101.348 17.9676C106.376 20.6107 112.043 21.798 117.709 21.3958V2.22806C117.646 1.80781 117.669 1.37914 117.777 0.968207C117.897 0.73576 118.049 0.520916 118.227 0.329712H99.5482C99.8353 0.663958 99.7368 1.25103 99.5654 1.82096Z"
              fill="#FF6196"/>
        <path d="M62.0511 42.9976C61.9623 45.137 61.2139 47.1966 59.9085 48.894C55.242 54.9179 49.8829 60.3719 43.9418 65.1435C42.9837 66.0304 41.7694 66.591 40.473 66.745C39.1766 66.8989 37.8647 66.6383 36.7255 66.0005C35.5917 65.5161 34.6357 64.6925 33.9889 63.6428C33.342 62.5932 33.0361 61.369 33.1131 60.1384C33.2503 58.627 33.8779 57.202 34.9 56.0803C41.5435 49.7455 48.7415 44.019 56.4075 38.9695C56.9096 38.5758 57.5227 38.3499 58.1602 38.3237C58.7977 38.2976 59.4273 38.4725 59.9599 38.8238C60.66 39.2585 61.2259 39.8786 61.5951 40.6153C61.9642 41.352 62.122 42.1766 62.0511 42.9976Z"
              fill="#FF87AF"/>
        <path d="M56.9127 68.97C56.8132 68.0228 56.9348 67.0654 57.2679 66.1731C57.6011 65.2809 58.1366 64.478 58.8325 63.8277C65.3374 57.8281 72.3164 52.3638 79.7014 47.4883C79.9243 47.3468 80.13 47.2054 80.3742 47.0597C81.0193 46.594 81.8009 46.356 82.596 46.3832C83.3912 46.4103 84.1547 46.7011 84.7665 47.2097C85.3585 47.7112 85.7774 48.3865 85.9635 49.1396C86.1497 49.8928 86.0937 50.6854 85.8036 51.4049C84.8693 54.5168 83.1449 57.3337 80.7984 59.5811C76.033 64.2758 71.1755 68.8762 66.2287 73.3795C65.4838 74.1456 64.5052 74.6422 63.447 74.7911C62.3889 74.9401 61.3112 74.7329 60.3837 74.2022C59.4091 73.6958 58.5792 72.9499 57.9721 72.0347C57.3649 71.1194 57.0004 70.0648 56.9127 68.97Z"
              fill="#FF87AF"/>
        <path d="M87.8344 71.8015C86.6346 73.0871 85.4004 74.3126 84.2477 75.6282C83.9011 76.1367 83.6136 76.683 83.3907 77.2566C84.0249 77.4451 84.7662 77.9422 85.2804 77.7665C87.8987 76.888 90.4527 75.8339 93.3281 74.724C92.7024 76.1638 92.231 77.4922 91.5668 78.7092C88.8305 83.3078 85.4038 87.4587 81.4066 91.0164C79.8868 92.4819 78.3084 93.8832 76.6715 95.2201C75.8046 95.9395 74.7622 96.4157 73.6509 96.6001C72.5396 96.7844 71.3992 96.6702 70.3465 96.2692C69.2938 95.8681 68.3665 95.1947 67.6595 94.3176C66.9525 93.4406 66.4912 92.3916 66.3227 91.2778C66.254 90.6585 66.3087 90.0317 66.4838 89.4337C66.6589 88.8357 66.9507 88.2784 67.3426 87.7939C73.174 81.4614 79.8384 75.9503 87.1531 71.4115C87.242 71.3771 87.3363 71.3582 87.4316 71.3558L87.8344 71.8015Z"
              fill="#FF87AF"/>
        <path d="M97.6724 54.7335L105.004 22.1659L110.147 23.37L107.494 31.4305C105.017 38.9296 102.51 46.4287 100.093 53.9364C99.6221 55.3248 99.0051 55.5819 97.6724 54.7335Z"
              fill="#FF6196"/>
        <path d="M89.3859 73.8885C90.1615 70.9274 90.9328 68.1892 91.5842 65.421C92.219 62.7364 93.4264 60.2207 95.1238 58.0461C96.1651 56.6791 97.3349 57.2234 98.5305 57.519C99.6361 57.789 99.9146 58.5989 99.9618 59.6616C100.136 62.6005 99.2411 65.5031 97.4421 67.8335C95.3003 70.4887 92.5318 72.5695 89.3859 73.8885Z"
              fill="#FF6196"/>
        <path d="M119.944 3.83936C120.008 2.88498 119.983 1.92674 119.871 0.976845C119.783 0.711516 119.607 0.483621 119.374 0.329779C119.184 0.175101 118.961 0.0652523 118.723 0.00838844C118.585 -0.0173228 118.393 0.124089 118.208 0.325493C118.03 0.516698 117.878 0.731542 117.758 0.96399C117.65 1.37492 117.627 1.80359 117.69 2.22384V21.3873C112.023 21.7895 106.357 20.6022 101.329 17.9591C99.685 17.2161 98.3781 15.8856 97.6646 14.2286C96.951 12.5717 96.8824 10.7079 97.4722 9.00304C98.1107 6.59046 98.8178 4.19932 99.5462 1.81246C99.7177 1.24253 99.8162 0.655454 99.5462 0.321208C99.3961 0.158494 99.1888 0.0602123 98.9677 0.0469556C98.6847 0.0500088 98.4105 0.146413 98.1878 0.321208C97.8674 0.512888 97.6121 0.796593 97.4551 1.1354C96.598 3.70652 95.8438 6.30336 95.1882 8.9259C94.9407 9.95936 94.874 11.0279 94.9911 12.0841C95.1569 13.9952 95.8676 15.8186 97.0389 17.3377C98.2102 18.8569 99.7928 20.0081 101.599 20.6545C102.409 20.993 102.884 21.3273 102.657 22.3943C102.344 23.7484 102.04 25.1026 101.732 26.461C99.632 35.6656 97.5436 44.8745 95.4667 54.0877C95.4082 54.4985 95.2275 54.8822 94.9482 55.189C93.5793 56.2771 92.4291 57.6148 91.5586 59.1314C90.4493 61.1327 89.6817 63.3052 89.2875 65.5592C89.2118 66.2782 88.952 66.9655 88.5331 67.5548C88.1143 68.144 87.5505 68.6153 86.8963 68.9231C85.1094 69.8273 83.4682 70.9971 81.4841 72.2141C81.6164 69.8282 81.5906 67.4361 81.407 65.0535C81.256 64.3206 81.288 63.5618 81.5003 62.8442C81.7126 62.1267 82.0985 61.4725 82.624 60.9397C85.2375 58.3506 87.1005 55.1015 88.0148 51.538C88.2878 50.712 88.3627 49.8333 88.2333 48.9729C88.104 48.1126 87.774 47.2948 87.27 46.5856C86.7661 45.8764 86.1023 45.2957 85.3325 44.8905C84.5626 44.4853 83.7081 44.267 82.8382 44.2531C81.4298 44.2374 80.047 44.6304 78.8573 45.3844C74.7683 48.1767 70.7504 51.0715 66.8073 54.0663C64.4633 55.8318 62.2564 57.7858 59.9852 59.637C59.8873 59.5319 59.8025 59.4154 59.7324 59.2899C59.689 58.9744 59.604 58.6661 59.4796 58.3729C57.5812 55.4418 58.8968 53.3121 60.958 51.1223C63.1053 48.8714 64.2919 45.8727 64.2661 42.7619C64.3327 41.1769 63.8363 39.6194 62.8649 38.3653C62.3474 37.7286 61.7096 37.2001 60.988 36.8097C59.9629 36.2487 58.7908 36.0145 57.6289 36.1386C56.467 36.2627 55.3708 36.7391 54.4873 37.5039L53.2917 38.361C50.5621 40.315 47.7981 42.2177 45.1713 44.3089C41.3364 47.3705 37.5841 50.5341 33.9183 53.7963C32.2042 55.309 30.953 57.3744 29.1746 58.78C19.9014 66.1034 10.5297 73.294 1.1922 80.5317C0.871132 80.7232 0.575909 80.9551 0.313735 81.2216C0.286745 81.2606 0.263774 81.3023 0.245172 81.3459C0.0480521 81.8044 -0.119071 82.5629 0.112331 82.8414C0.169054 82.9019 0.23761 82.95 0.313735 82.9828C0.721934 83.1523 1.17623 83.175 1.5993 83.0471C2.15985 82.7563 2.67399 82.3837 3.12483 81.9415L29.2646 61.6811C29.7317 61.3168 30.2245 60.9869 30.7944 60.5755C30.9476 62.2831 31.5807 63.9125 32.6206 65.2757C33.6604 66.6388 35.0646 67.68 36.671 68.2791C38.2774 68.8782 40.0204 69.0107 41.6989 68.6614C43.3774 68.312 44.9229 67.4951 46.1569 66.3048C49.1565 63.4166 52.2547 60.6141 55.3101 57.773L56.4242 56.7274C58.2926 60.3827 58.104 61.3468 55.2329 63.648C37.5893 77.7663 19.9585 91.8875 2.34064 106.012C1.59073 106.611 0.108046 107.156 1.08079 108.433C2.05353 109.71 2.94914 108.394 3.69476 107.798C20.2242 94.5972 36.7423 81.3787 53.2489 68.1432C53.6774 67.8003 54.1273 67.4961 54.7487 67.0419V68.4303C54.6647 70.0345 55.0599 71.6275 55.8841 73.0064C56.7082 74.3853 57.924 75.4879 59.3767 76.1736C60.8007 76.897 62.4173 77.1503 63.9942 76.897C65.5711 76.6436 67.0271 75.8968 68.1528 74.7638C71.551 71.7642 74.9149 68.7045 78.2959 65.6792C78.5102 65.4863 78.7587 65.3406 79.153 65.0407C79.6367 67.9861 79.542 70.9975 78.8744 73.9068C78.7096 74.2936 78.4394 74.6262 78.0945 74.8667C75.3005 77.2807 72.4966 79.6847 69.6826 82.0787L28.4075 117.115C27.9243 117.437 27.4972 117.836 27.1434 118.297C27.0305 118.507 26.9672 118.741 26.9582 118.979C26.9493 119.217 26.9951 119.455 27.092 119.673C27.2856 119.818 27.5094 119.917 27.7468 119.964C27.9842 120.011 28.2291 120.004 28.4633 119.943C28.648 119.889 28.8181 119.794 28.9603 119.664C29.1746 119.493 29.3889 119.274 29.5817 119.099L59.4196 93.8158C60.8551 92.5988 62.3035 91.399 63.8162 90.1306C63.8928 90.3343 63.9544 90.5434 64.0005 90.7562C64.0861 92.4102 64.6556 94.0027 65.6383 95.3358C66.6211 96.669 67.9737 97.6842 69.5284 98.2553C71.0641 98.9225 72.7662 99.108 74.4096 98.7874C76.053 98.4669 77.5606 97.6552 78.733 96.4598C80.7213 94.6472 82.684 92.8045 84.6552 90.9705C85.9407 89.792 87.1834 88.6093 88.5376 87.3366C88.7898 88.2162 88.9944 89.1089 89.1503 90.0106C89.3473 92.1094 89.0578 94.2253 88.3042 96.1941C87.5506 98.1628 86.3532 99.9313 84.8051 101.362C79.8386 106.71 74.7606 111.942 69.7255 117.217C69.3955 117.56 68.9413 117.843 68.7613 118.25C68.5813 118.657 68.4657 119.454 68.6799 119.626L68.7399 119.664C69.1892 119.883 69.6945 119.959 70.1883 119.883C70.3267 119.854 70.45 119.777 70.5354 119.664C70.6554 119.54 70.7711 119.386 70.8868 119.27C74.9663 115.053 79.0672 110.858 83.1168 106.611C84.7513 104.955 86.288 103.205 87.7191 101.371C89.5851 99.3049 90.8224 96.7492 91.2855 94.0042C91.7486 91.2591 91.4181 88.439 90.3331 85.8754C90.2164 85.3037 90.3304 84.7092 90.6502 84.2213C90.9287 83.7413 91.2372 83.2742 91.5543 82.8114C92.569 81.494 93.4141 80.0544 94.0698 78.5262C95.3368 74.7758 97.2817 71.2898 99.8076 68.2417C100.969 66.7695 101.768 65.0448 102.14 63.207C102.512 61.3692 102.447 59.4696 101.95 57.6616C101.775 56.9741 101.775 56.2535 101.95 55.5661C104.119 48.8512 106.351 42.1577 108.562 35.4599L111.519 26.4867L112.432 23.7142C114.377 23.7142 116.211 23.6756 118.037 23.7142C119.554 23.757 120.017 23.0457 120 21.5715C119.91 15.658 119.944 9.74866 119.944 3.83936ZM43.9371 65.1435C42.9791 66.0304 41.7647 66.591 40.4683 66.745C39.1719 66.8989 37.86 66.6383 36.7208 66.0006C35.587 65.5162 34.631 64.6925 33.9842 63.6429C33.3373 62.5932 33.0314 61.369 33.1084 60.1384C33.2457 58.6271 33.8732 57.202 34.8953 56.0803C41.5388 49.7455 48.7368 44.019 56.4028 38.9695C56.8212 38.6737 57.2972 38.4693 57.7998 38.3696C58.1369 38.3074 58.4825 38.3074 58.8196 38.3696C59.2234 38.4482 59.6086 38.6023 59.9552 38.8238C60.656 39.2588 61.2224 39.8796 61.5916 40.6171C61.9607 41.3547 62.1182 42.1802 62.0464 43.0019C61.9576 45.1413 61.2092 47.2009 59.9038 48.8983C55.237 54.9207 49.878 60.3733 43.9371 65.1435ZM66.2202 73.4097C65.4752 74.1758 64.4966 74.6724 63.4385 74.8213C62.3803 74.9703 61.3027 74.7631 60.3752 74.2324C59.3988 73.7249 58.5678 72.977 57.9605 72.0593C57.3533 71.1416 56.9897 70.0844 56.9042 68.9874C56.8047 68.0401 56.9263 67.0828 57.2594 66.1905C57.5925 65.2982 58.1281 64.4954 58.8239 63.8451C65.3288 57.8454 72.3078 52.3811 79.6929 47.5056C79.9157 47.3642 80.1214 47.2228 80.3657 47.0771C81.0107 46.6114 81.7923 46.3734 82.5875 46.4005C83.3826 46.4277 84.1462 46.7185 84.758 47.2271C85.35 47.7285 85.7688 48.4038 85.955 49.157C86.1412 49.9101 86.0852 50.7028 85.795 51.4223C84.8607 54.5342 83.1364 57.351 80.7899 59.5985C76.0633 64.3208 71.1482 68.8674 66.2288 73.3925L66.2202 73.4097ZM91.5501 78.7276C88.8175 83.319 85.3967 87.4638 81.407 91.0176C79.8872 92.4831 78.3088 93.8844 76.6718 95.2214C75.8049 95.9408 74.7625 96.417 73.6512 96.6013C72.5399 96.7856 71.3996 96.6714 70.3469 96.2704C69.2942 95.8694 68.3669 95.1959 67.6599 94.3189C66.9529 93.4419 66.4915 92.3928 66.323 91.279C66.2543 90.6597 66.3091 90.0329 66.4842 89.435C66.6592 88.837 66.9511 88.2796 67.3429 87.7951C73.1743 81.4627 79.8387 75.9515 87.1534 71.4128C87.2424 71.3783 87.3366 71.3594 87.432 71.3571L87.8605 71.7856C86.6606 73.0712 85.4265 74.2967 84.2738 75.6123C83.9272 76.1208 83.6396 76.6671 83.4167 77.2407C84.0509 77.4292 84.7923 77.9263 85.3065 77.7506C87.3763 77.0564 89.4117 76.2508 91.5929 75.3937L93.3541 74.7081C92.6942 76.1651 92.2228 77.4935 91.5586 78.7105L91.5501 78.7276ZM97.4336 67.8646C95.8352 69.8996 93.8317 71.5806 91.5501 72.8012C90.8444 73.1954 90.1202 73.564 89.3775 73.9068C90.1402 70.9885 90.903 68.2846 91.5501 65.5506L91.5758 65.4392C92.2106 62.7546 93.418 60.2389 95.1153 58.0644C96.1566 56.6974 97.3265 57.2416 98.5221 57.5373C99.6277 57.8073 99.9062 58.6172 99.9533 59.6799C100.129 62.6162 99.2372 65.5171 97.4422 67.8475L97.4336 67.8646ZM107.461 31.4404C104.984 38.9395 102.477 46.4386 100.06 53.9463C99.6062 55.3561 98.9892 55.6132 97.6565 54.7648L104.011 26.5124L104.988 22.1758L110.131 23.3799L109.098 26.5124L107.461 31.4404Z"
              fill="black"/>

    </g>

    <g id="materialUI">
        <polygon fill="#00B0FF" points="0 110.848 0 0 96 55.424 96 92.3733333 32 55.424 32 129.322667">

        </polygon>
        <polygon fill="#0081CB"
                 points="96 55.424 192 0 192 110.848 128 147.797333 96 129.322667 160 92.3733333 160 55.424 96 92.3733333">

        </polygon>
        <polygon fill="#00B0FF" points="96 129.322667 96 166.272 160 203.221333 160 166.272">

        </polygon>
        <path d="M160,203.221333 L256,147.797333 L256,73.8986667 L224,92.3733333 L224,129.322667 L160,166.272 L160,203.221333 Z M224,55.424 L224,18.4746667 L256,5.68434189e-14 L256,36.9493333 L224,55.424 Z"
              fill="#0081CB">

        </path>
    </g>

    <g id="git">
        <path d="M103.02 47.8219L57.1758 1.98038C54.5372 -0.6598 50.2552 -0.6598 47.6134 1.98038L38.0937 11.5001L50.1699 23.5763C52.9762 22.6281 56.1943 23.2642 58.4313 25.5012C60.6789 27.7525 61.3106 30.9981 60.3393 33.8134L71.9775 45.452C74.7932 44.482 78.0421 45.1095 80.291 47.3621C83.434 50.5039 83.434 55.596 80.291 58.7399C77.1471 61.8841 72.055 61.8841 68.9095 58.7399C66.5454 56.3733 65.9613 52.9013 67.1582 49.9888L56.3046 39.1352L56.3034 67.6973C57.0902 68.0863 57.8088 68.6002 58.4313 69.2189C61.5743 72.3607 61.5743 77.4532 58.4313 80.5995C55.2874 83.7422 50.1929 83.7422 47.0535 80.5995C43.9105 77.4532 43.9105 72.3611 47.0535 69.2193C47.8067 68.4658 48.7019 67.869 49.6871 67.4635V38.6352C48.7004 38.2324 47.8048 37.6353 47.0535 36.8793C44.6722 34.5013 44.0996 31.0071 45.3198 28.0831L33.4154 16.1775L1.98105 47.6099C-0.660352 50.2525 -0.660352 54.5349 1.98105 57.1755L47.8259 103.018C50.4652 105.658 54.7464 105.658 57.3891 103.018L103.019 57.3884C105.66 54.747 105.66 50.4621 103.019 47.8219"
              fill="#DE4C36"/>
    </g>

    <g id="computer">
        <path fill-rule="evenodd" clip-rule="evenodd"
              d="M4.5 8.12505C4.5 7.34266 4.81607 6.59232 5.37868 6.03908C5.94129 5.48585 6.70435 5.17505 7.5 5.17505H22.5C23.2956 5.17505 24.0587 5.48585 24.6213 6.03908C25.1839 6.59232 25.5 7.34266 25.5 8.12505V19.925C25.5 20.7074 25.1839 21.4578 24.6213 22.011C24.0587 22.5642 23.2956 22.875 22.5 22.875H19.17L19.3545 23.5963L20.5605 24.7822C20.7702 24.9885 20.913 25.2513 20.9709 25.5374C21.0287 25.8235 20.999 26.12 20.8855 26.3895C20.772 26.6589 20.5798 26.8893 20.3332 27.0514C20.0866 27.2134 19.7966 27.3 19.5 27.3H10.5C10.2034 27.3 9.91343 27.2134 9.66681 27.0514C9.4202 26.8893 9.22799 26.6589 9.11448 26.3895C9.00098 26.12 8.97127 25.8235 9.02912 25.5374C9.08698 25.2513 9.22979 24.9885 9.4395 24.7822L10.6455 23.5963L10.83 22.875H7.5C6.70435 22.875 5.94129 22.5642 5.37868 22.011C4.81607 21.4578 4.5 20.7074 4.5 19.925V8.12505ZM13.1565 18.45H7.5V8.12505H22.5V18.45H13.1565Z"
              fill="white"/>
    </g>

    <g id="paint">
        <path fill-rule="evenodd" clip-rule="evenodd"
              d="M24.33 20.5852C25.896 14.8386 22.188 8.90315 16.0965 7.29835C9.21747 5.4841 -0.546033 10.1953 1.62597 16.2383C2.34597 18.237 3.73197 18.7045 6.34647 18.7414L6.50997 18.7444C7.89147 18.7606 8.27997 18.8491 8.39697 19.0349C8.58747 19.3417 8.59047 19.83 8.37597 21.1737C8.27397 21.8079 8.24097 22.0292 8.20197 22.3758C7.96347 24.4865 8.32647 26.1326 9.73197 27.6224C14.124 32.2731 22.5615 27.0722 24.33 20.5852ZM4.45497 15.253C3.36147 12.2145 10.359 8.83825 15.3195 10.1451C19.845 11.3384 22.5585 15.6823 21.432 19.8196C20.175 24.4334 14.259 28.0796 11.931 25.6134C11.211 24.8523 11.0325 24.0381 11.184 22.7003C11.2155 22.4142 11.2455 22.2165 11.34 21.6295C11.6685 19.5689 11.664 18.6278 10.953 17.4906C10.062 16.0643 9.00297 15.8239 6.54747 15.7929L6.38847 15.7899C4.94247 15.7708 4.59897 15.6542 4.45347 15.253H4.45497Z"
              fill="#222A36"/>
        <path d="M9 14.75C8.50272 14.75 8.02581 14.5557 7.67417 14.21C7.32254 13.8642 7.125 13.3952 7.125 12.9062C7.125 12.4173 7.32254 11.9483 7.67417 11.6025C8.02581 11.2568 8.50272 11.0625 9 11.0625C9.49728 11.0625 9.97419 11.2568 10.3258 11.6025C10.6775 11.9483 10.875 12.4173 10.875 12.9062C10.875 13.3952 10.6775 13.8642 10.3258 14.21C9.97419 14.5557 9.49728 14.75 9 14.75Z"
              fill="#222A36"/>
        <path d="M14.625 14.75C14.1277 14.75 13.6508 14.5557 13.2992 14.21C12.9475 13.8642 12.75 13.3952 12.75 12.9062C12.75 12.4173 12.9475 11.9483 13.2992 11.6025C13.6508 11.2568 14.1277 11.0625 14.625 11.0625C15.1223 11.0625 15.5992 11.2568 15.9508 11.6025C16.3025 11.9483 16.5 12.4173 16.5 12.9062C16.5 13.3952 16.3025 13.8642 15.9508 14.21C15.5992 14.5557 15.1223 14.75 14.625 14.75Z"
              fill="#222A36"/>
        <path d="M18.375 19.175C17.8777 19.175 17.4008 18.9808 17.0492 18.635C16.6975 18.2893 16.5 17.8203 16.5 17.3313C16.5 16.8423 16.6975 16.3733 17.0492 16.0276C17.4008 15.6818 17.8777 15.4875 18.375 15.4875C18.8723 15.4875 19.3492 15.6818 19.7008 16.0276C20.0525 16.3733 20.25 16.8423 20.25 17.3313C20.25 17.8203 20.0525 18.2893 19.7008 18.635C19.3492 18.9808 18.8723 19.175 18.375 19.175Z"
              fill="#222A36"/>
        <path d="M16.125 24.3375C15.6277 24.3375 15.1508 24.1433 14.7992 23.7975C14.4475 23.4517 14.25 22.9828 14.25 22.4938C14.25 22.0048 14.4475 21.5358 14.7992 21.19C15.1508 20.8443 15.6277 20.65 16.125 20.65C16.6223 20.65 17.0992 20.8443 17.4508 21.19C17.8025 21.5358 18 22.0048 18 22.4938C18 22.9828 17.8025 23.4517 17.4508 23.7975C17.0992 24.1433 16.6223 24.3375 16.125 24.3375Z"
              fill="#222A36"/>
        <path d="M21.555 5.31754C21.7329 5.22384 21.9281 5.16639 22.1291 5.14862C22.33 5.13086 22.5326 5.15315 22.7246 5.21415C22.9166 5.27516 23.0941 5.37363 23.2465 5.50367C23.3989 5.63371 23.523 5.79264 23.6115 5.97097L29.751 18.361C29.8535 18.5837 29.8659 18.8364 29.7857 19.0678C29.7055 19.2992 29.5387 19.4918 29.3192 19.6066C29.0997 19.7214 28.844 19.7497 28.6041 19.6857C28.3641 19.6217 28.158 19.4703 28.0275 19.2622L20.9655 7.35894C20.864 7.18771 20.7987 6.99808 20.7735 6.80142C20.7483 6.60477 20.7638 6.40514 20.819 6.2145C20.8742 6.02387 20.9679 5.84616 21.0947 5.69203C21.2214 5.5379 21.3785 5.41052 21.5565 5.31754H21.555Z"
              fill="#222A36"/>
        <path fill-rule="evenodd" clip-rule="evenodd"
              d="M18.8054 5.13899C19.5359 6.48861 20.7644 6.86621 21.9524 6.24524C23.1389 5.62574 23.5094 4.41181 22.7789 3.06219C21.9449 1.51639 20.1569 0.115138 18.9719 0.733163C17.7869 1.35266 17.9699 3.59319 18.8069 5.13899H18.8054ZM20.1299 4.44574C19.8643 3.92128 19.7015 3.35235 19.6499 2.76866C19.6276 2.52465 19.6367 2.27884 19.6769 2.03706L19.7039 2.05034C19.7789 2.08574 20.0114 2.19194 20.3084 2.42499C20.7614 2.78046 21.2114 3.30409 21.4544 3.75396C21.7979 4.38821 21.7004 4.70681 21.2474 4.94429C20.7974 5.18029 20.4734 5.07999 20.1299 4.44721V4.44574Z"
              fill="#222A36"/>
    </g>

    <g id="thunder">
        <path d="M22.105 4.42873C22.7563 3.61871 22.1425 2.45837 21.06 2.45837H12.665C12.1963 2.45837 11.7625 2.69437 11.5288 3.07542L5.17629 13.4692C4.67504 14.2879 5.30504 15.3093 6.31129 15.3093H10.5975L6.56004 25.2225C5.97629 26.4763 7.55379 27.6231 8.61379 26.716L25 11.4694H16.4388L22.105 4.42873V4.42873Z"
              stroke="#222A36" stroke-width="2" stroke-linecap="round" stroke-linejoin="round"/>
    </g>

    <g id="quotation-marks">
        <path d="M30.3 28.1C27.0333 28.1 24.6667 26.9333 23.2 24.6C22.5333 23.6 22 22.3667 21.6 20.9C21.2 19.4333 21 17.9 21 16.3C21 12.8333 21.8667 9.7 23.6 6.9C25.4 4.1 28.0333 1.9 31.5 0.299994L32.4 2.09999C30.4667 2.9 28.7667 4.13333 27.3 5.79999C25.9 7.46666 25.0667 9.16666 24.8 10.9C24.6 11.7 24.5 12.4667 24.5 13.2C24.5 13.8667 24.6 14.5 24.8 15.1C26.2667 13.5 28.2 12.7 30.6 12.7C32.9333 12.7 34.8333 13.4 36.3 14.8C37.7667 16.1333 38.5 18 38.5 20.4C38.5 22.6667 37.7333 24.5333 36.2 26C34.6667 27.4 32.7 28.1 30.3 28.1ZM9.7 28.1C6.43333 28.1 4.06667 26.9333 2.6 24.6C1.93333 23.6 1.4 22.3667 1 20.9C0.6 19.4333 0.4 17.9 0.4 16.3C0.4 12.8333 1.26667 9.7 3 6.9C4.8 4.1 7.43333 1.9 10.9 0.299994L11.8 2.09999C9.86667 2.9 8.16667 4.13333 6.7 5.79999C5.3 7.46666 4.46667 9.16666 4.2 10.9C4 11.7 3.9 12.4667 3.9 13.2C3.9 13.8667 4 14.5 4.2 15.1C5.66667 13.5 7.6 12.7 10 12.7C12.3333 12.7 14.2333 13.4 15.7 14.8C17.1667 16.1333 17.9 18 17.9 20.4C17.9 22.6667 17.1333 24.5333 15.6 26C14.0667 27.4 12.1 28.1 9.7 28.1Z"
              fill="#C4C4C4"/>
    </g>

    <g id="git-hub">
        <path fill-rule="evenodd" clip-rule="evenodd" d="M12.5 0C5.59375 0 0 5.59375 0 12.5C0 18.0312 3.57812 22.7031 8.54688 24.3594C9.17188 24.4688 9.40625 24.0938 9.40625 23.7656C9.40625 23.4688 9.39062 22.4844 9.39062 21.4375C6.25 22.0156 5.4375 20.6719 5.1875 19.9688C5.04688 19.6094 4.4375 18.5 3.90625 18.2031C3.46875 17.9688 2.84375 17.3906 3.89062 17.375C4.875 17.3594 5.57812 18.2812 5.8125 18.6562C6.9375 20.5469 8.73437 20.0156 9.45312 19.6875C9.5625 18.875 9.89062 18.3281 10.25 18.0156C7.46875 17.7031 4.5625 16.625 4.5625 11.8437C4.5625 10.4844 5.04688 9.35938 5.84375 8.48438C5.71875 8.17188 5.28125 6.89062 5.96875 5.17188C5.96875 5.17188 7.01562 4.84375 9.40625 6.45312C10.4062 6.17188 11.4687 6.03125 12.5312 6.03125C13.5937 6.03125 14.6562 6.17188 15.6562 6.45312C18.0469 4.82812 19.0938 5.17188 19.0938 5.17188C19.7812 6.89062 19.3438 8.17188 19.2188 8.48438C20.0156 9.35938 20.5 10.4687 20.5 11.8437C20.5 16.6406 17.5781 17.7031 14.7969 18.0156C15.25 18.4062 15.6406 19.1562 15.6406 20.3281C15.6406 22 15.625 23.3438 15.625 23.7656C15.625 24.0938 15.8594 24.4844 16.4844 24.3594C18.9658 23.5216 21.1221 21.9268 22.6496 19.7993C24.1772 17.6719 24.9993 15.119 25 12.5C25 5.59375 19.4062 0 12.5 0Z" fill="white"/>
    </g>

    <g id="whatSap">
        <path d="M4.40904 24.1866L4.83954 23.1821L4.22665 22.2772C2.76895 20.1251 2 17.6184 2 15C2 11.5238 3.34949 8.26561 5.80756 5.80759C8.26567 3.34953 11.5238 2 15 2C18.4762 2 21.7344 3.34954 24.1924 5.80756C26.6504 8.26569 28 11.5238 28 15C28 18.4762 26.6504 21.7343 24.1924 24.1924C21.7344 26.6505 18.4762 28 15 28C12.2899 28 9.71296 27.1818 7.51472 25.6292L6.55827 24.9537L5.50107 25.4571L3.44496 26.4362L4.40904 24.1866ZM0.500026 29.5001L0.500008 29.5L0.499976 29.5L0.500026 29.5001Z" stroke="white" stroke-width="4"/>
        <path d="M22.9917 20.0766L22.5421 17.6414C22.5049 17.4403 22.349 17.282 22.1485 17.2419L18.613 16.5348C18.4488 16.5021 18.2795 16.5534 18.1613 16.6716L16.7249 18.108C14.3049 17.0236 12.9617 15.6776 11.7798 13.1536L13.2116 11.7218C13.3298 11.6036 13.3811 11.4341 13.3483 11.2701L12.6412 7.73459C12.6011 7.53403 12.4428 7.37811 12.2417 7.34096L9.80646 6.89137C9.73978 6.87906 9.6711 6.88041 9.60489 6.89547C8.96189 7.0416 8.37519 7.36557 7.90825 7.83262C7.0996 8.64127 6.79058 9.82117 7.01458 11.2449C7.39064 13.6356 8.56198 16.9627 10.7229 19.1322L10.7523 19.1615C12.9204 21.321 16.2474 22.4924 18.6381 22.8685C18.9392 22.9159 19.2294 22.9394 19.5075 22.9394C20.5442 22.9394 21.4128 22.6124 22.0504 21.9748C22.5174 21.5078 22.8415 20.9211 22.9875 20.2781C23.0026 20.212 23.0041 20.1433 22.9917 20.0766Z" fill="white"/>
    </g>

    <g id="arrow-right">
        <path d="M5 15H25" stroke="#676CDB" stroke-width="2" stroke-linecap="round" stroke-linejoin="round"/>
        <path d="M16.25 6.25L25 15L16.25 23.75" stroke="#676CDB" stroke-width="2" stroke-linecap="round" stroke-linejoin="round"/>
    </g>
</svg>
